<?xml version="1.0" encoding="utf-8"?>
<!-- Generator: Adobe Illustrator 19.0.0, SVG Export Plug-In . SVG Version: 6.00 Build 0)  -->
<svg version="1.1" id="图层_1" xmlns="http://www.w3.org/2000/svg" xmlns:xlink="http://www.w3.org/1999/xlink" x="0px" y="0px"
	 viewBox="0 0 28 28" style="enable-background:new 0 0 28 28;" xml:space="preserve">
<style type="text/css">
	.st0{fill:#253068;}
</style>
<g id="sLxJiY.tif_2_">
	<path id="XMLID_282_" class="st0" d="M23.3,0H4.7C2.1,0,0,2.1,0,4.7v18.6C0,25.9,2.1,28,4.7,28h18.6c2.6,0,4.7-2.1,4.7-4.7l0-18.6
		C28,2.1,25.9,0,23.3,0z M10.5,22.7C10.5,22.7,10.5,22.7,10.5,22.7l-3.5,0c0,0,0,0,0,0l0-12.2c0,0,0,0,0,0h3.5c0,0,0,0,0,0
		L10.5,22.7z M8.7,9.8c-1.1,0-1.9-0.9-1.9-1.9c0-1.1,0.9-1.9,1.9-1.9s1.9,0.9,1.9,1.9C10.6,8.9,9.8,9.8,8.7,9.8z M22.8,22.7
		C22.8,22.7,22.8,22.7,22.8,22.7l-3.5,0c0,0,0,0,0,0l0-6.3c0-1-0.8-1.8-1.8-1.8c-0.9,0-1.7,0.8-1.7,1.8v6.3c0,0,0,0,0,0h-3.5
		c0,0,0,0,0,0l0-12.2c0,0,0,0,0,0h3.5c0,0,0,0,0,0v2.8c0,0,0,0,0,0c0.9-1.8,1.8-2.2,3.1-2.2c2.2,0,4,2,4,4.4V22.7z"/>
</g>
</svg>
