<svg xmlns="http://www.w3.org/2000/svg" viewBox="0 0 141.14 66.9"><defs><style>.cls-1{fill:#7854f2;}</style></defs><title>资源 1</title><g id="图层_2" data-name="图层 2"><g id="图层_1-2" data-name="图层 1"><path class="cls-1" d="M0,57.32H3.67a4.69,4.69,0,0,1,5,4.68v0a4.7,4.7,0,0,1-5,4.7H0Zm3.67,7.54a2.68,2.68,0,0,0,2.84-2.8v0a2.71,2.71,0,0,0-2.84-2.84H2.07v5.67Z"/><path class="cls-1" d="M13.34,57.26h1.91l4,9.47H17.12l-.86-2.11h-4l-.86,2.11H9.31Zm2.18,5.53-1.25-3-1.25,3Z"/><path class="cls-1" d="M21,57.32h7.1v1.84h-5v1.91H27.5v1.85H23.07v2h5.1v1.84H21Z"/><path class="cls-1" d="M32.86,62l-3.15-4.63h2.42l2,3,2-3h2.35l-3.15,4.6,3.28,4.81H36.16l-2.11-3.22-2.12,3.22H29.58Z"/><path class="cls-1" d="M47.13,57.32H51.5a3.4,3.4,0,0,1,2.46.84,2.15,2.15,0,0,1,.64,1.6v0a2.17,2.17,0,0,1-1.23,2,2.3,2.3,0,0,1,1.76,2.32v0c0,1.72-1.4,2.58-3.52,2.58H47.13Zm3.92,3.81c.92,0,1.5-.3,1.5-1v0c0-.62-.49-1-1.36-1h-2v2Zm.56,3.79c.91,0,1.46-.32,1.46-1v0c0-.63-.47-1-1.53-1h-2.4v2.07Z"/><path class="cls-1" d="M57.11,57.32h2.07v7.53h4.69v1.88H57.11Z"/><path class="cls-1" d="M64.75,62.06v0a5,5,0,0,1,10,0v0a5,5,0,0,1-10,0Zm7.84,0v0a2.86,2.86,0,0,0-2.85-3A2.82,2.82,0,0,0,66.91,62v0a2.87,2.87,0,0,0,2.85,3A2.82,2.82,0,0,0,72.59,62.06Z"/><path class="cls-1" d="M76.45,62.06v0a4.79,4.79,0,0,1,4.91-4.87,4.87,4.87,0,0,1,3.71,1.45l-1.32,1.52a3.48,3.48,0,0,0-2.41-1.06A2.79,2.79,0,0,0,78.61,62v0a2.8,2.8,0,0,0,2.73,3,3.38,3.38,0,0,0,2.48-1.11l1.31,1.33a5,5,0,0,1-8.68-3.15Z"/><path class="cls-1" d="M87.06,57.32h2.07v4.12L93,57.32h2.5l-3.83,4,4,5.41H93.14l-2.92-4-1.09,1.13v2.87H87.06Z"/><path class="cls-1" d="M96,62.06v0a4.79,4.79,0,0,1,4.91-4.87,4.86,4.86,0,0,1,3.71,1.45l-1.32,1.52a3.44,3.44,0,0,0-2.4-1.06A2.79,2.79,0,0,0,98.16,62v0a2.8,2.8,0,0,0,2.73,3,3.38,3.38,0,0,0,2.47-1.11l1.32,1.33a4.82,4.82,0,0,1-3.86,1.69A4.75,4.75,0,0,1,96,62.06Z"/><path class="cls-1" d="M106.6,57.32h2.07v3.73h3.82V57.32h2.07v9.41h-2.07V63h-3.82v3.77H106.6Z"/><path class="cls-1" d="M120.32,57.26h1.91l4,9.47H124.1l-.86-2.11h-4l-.86,2.11h-2.11Zm2.18,5.53-1.25-3-1.25,3Z"/><path class="cls-1" d="M128.08,57.32h2.07v9.41h-2.07Z"/><path class="cls-1" d="M132.78,57.32h1.91l4.41,5.8v-5.8h2v9.41h-1.76l-4.56-6v6h-2Z"/><path class="cls-1" d="M0,0V52.22H141.14V0ZM109.42,23.79H69.9A21.5,21.5,0,0,1,90.3,4.67ZM96.85,4.65h36.36L115,22.83ZM69.9,28.43h39.52L90.3,47.55A21.5,21.5,0,0,1,69.9,28.43Zm45.13,1,18.18,18.18H96.85Zm3.28-3.29L136.49,7.93V44.29ZM76.4,4.65A26.1,26.1,0,0,0,65.24,23.79h-.12L54.07,4.65ZM59.75,23.79H40.33L50,7ZM46,4.65,35,23.79h-.13A26.1,26.1,0,0,0,23.68,4.65ZM4.65,47.58V4.65H8.84a21.47,21.47,0,0,1,0,42.93Zm19,0a26.38,26.38,0,0,0,8-8.9h0l5.92-10.26H62.44l5.92,10.26h0a26.44,26.44,0,0,0,8,8.89Z"/></g></g></svg>