<svg xmlns="http://www.w3.org/2000/svg" viewBox="0 0 53.83 53.83"><defs><style>.cls-1{fill:#fff;}.cls-2{fill:#7852f2;}</style></defs><title>资源 40</title><g id="图层_2" data-name="图层 2"><g id="图层_1-2" data-name="图层 1"><circle id="_椭圆_" data-name="&lt;椭圆&gt;" class="cls-1" cx="26.91" cy="26.91" r="26.91"/><path class="cls-2" d="M38.83,23.64H37.1a1.56,1.56,0,0,1-1.59-1.74c0-4-3.52-8.42-7.92-8.42h-6c-3.18,0-8.1,3.13-8.1,8.28V32.35c0,3.65,3.23,8,7.78,8H32.46c2.48,0,7.92-2.57,7.92-8.24V25.18A1.65,1.65,0,0,0,38.83,23.64ZM20.57,22.09a1.6,1.6,0,0,1,1.59-1.59h4.78a1.6,1.6,0,0,1,1.59,1.59h0a1.59,1.59,0,0,1-1.59,1.59H22.16a1.59,1.59,0,0,1-1.59-1.59Zm12.85,9.79a1.6,1.6,0,0,1-1.59,1.59H22.16a1.6,1.6,0,0,1-1.59-1.59h0a1.59,1.59,0,0,1,1.59-1.59h9.67a1.59,1.59,0,0,1,1.59,1.59Z"/></g></g></svg>