<svg xmlns="http://www.w3.org/2000/svg" viewBox="0 0 53.83 52.02"><defs><style>.cls-1{fill:#fff;}</style></defs><title>资源 33</title><g id="图层_2" data-name="图层 2"><g id="图层_1-2" data-name="图层 1"><path class="cls-1" d="M31.91,38.49c1.28-.26,2.48-.45,3.64-.77,5.15-1.41,8.06-4.95,8.41-10.29a24.13,24.13,0,0,0-.11-4.25,8.66,8.66,0,0,0-2.12-4.57,1,1,0,0,1-.24-1.07,9.35,9.35,0,0,0-.34-6.13.83.83,0,0,0-.66-.4,7.9,7.9,0,0,0-3.61,1C35.91,12.44,35,13,34,13.52a1.28,1.28,0,0,1-.81.14,26.24,26.24,0,0,0-12.58,0,1.26,1.26,0,0,1-.87-.15,15.86,15.86,0,0,0-5.64-2.45c-1.24-.21-1.37-.14-1.71,1a9.78,9.78,0,0,0,0,5.67.87.87,0,0,1-.15.66,10.84,10.84,0,0,0-2.44,8.22,16.45,16.45,0,0,0,1,4.85c1.4,3.47,4.12,5.37,7.62,6.3.94.25,1.91.38,2.87.56l.63.13a6.5,6.5,0,0,0-1.61,3.28.7.7,0,0,1-.41.4,5.57,5.57,0,0,1-7.4-2.32,5.55,5.55,0,0,0-3.63-2.71,3.29,3.29,0,0,0-1.25,0c-.56.12-.64.44-.24.87a2.69,2.69,0,0,0,.63.53,7.22,7.22,0,0,1,3,3.66A5.89,5.89,0,0,0,16.48,46a36.05,36.05,0,0,0,3.7-.13c0,.13,0,.35,0,.57l0,3.9c0,1.4-.78,2-2.1,1.53A26.26,26.26,0,0,1,4.61,41.55,26.57,26.57,0,0,1,21.78.5,26.66,26.66,0,0,1,35.69,51.87c-1.31.43-2.09-.12-2.09-1.49,0-2.16,0-4.31,0-6.46A7.33,7.33,0,0,0,31.91,38.49Z"/></g></g></svg>