<svg xmlns="http://www.w3.org/2000/svg" viewBox="0 0 172.77 81.89"><defs><style>.cls-1{fill:#fff;}</style></defs><title>资源 29</title><g id="图层_2" data-name="图层 2"><g id="图层_1-2" data-name="图层 1"><path class="cls-1" d="M0,70.17H4.49c3.62,0,6.12,2.49,6.12,5.73v0a5.77,5.77,0,0,1-6.12,5.76H0ZM4.49,79.4A3.28,3.28,0,0,0,8,76v0a3.3,3.3,0,0,0-3.47-3.47h-2V79.4Z"/><path class="cls-1" d="M16.33,70.09h2.34l4.94,11.6H21L19.9,79.11H15l-1,2.58H11.39ZM19,76.87l-1.53-3.74-1.53,3.74Z"/><path class="cls-1" d="M25.72,70.17h8.69v2.26H28.24v2.33h5.43V77H28.24v2.42h6.25v2.25H25.72Z"/><path class="cls-1" d="M40.22,75.83l-3.85-5.66h3l2.42,3.74,2.44-3.74h2.88L43.22,75.8l4,5.89h-3l-2.58-4-2.6,4H36.21Z"/><path class="cls-1" d="M57.69,70.17H63a4.14,4.14,0,0,1,3,1,2.64,2.64,0,0,1,.79,2v0a2.69,2.69,0,0,1-1.51,2.49,2.81,2.81,0,0,1,2.15,2.83v0c0,2.11-1.71,3.16-4.31,3.16H57.69Zm4.81,4.66c1.12,0,1.82-.36,1.82-1.22v0c0-.76-.59-1.19-1.66-1.19h-2.5v2.44Zm.67,4.64c1.12,0,1.8-.4,1.8-1.25v0c0-.78-.58-1.26-1.88-1.26H60.16v2.54Z"/><path class="cls-1" d="M69.91,70.17h2.53v9.22h5.75v2.3H69.91Z"/><path class="cls-1" d="M79.26,76v0a6.12,6.12,0,0,1,12.24,0v0a6.12,6.12,0,0,1-12.24,0Zm9.59,0v0a3.5,3.5,0,0,0-3.48-3.62,3.44,3.44,0,0,0-3.46,3.59v0a3.5,3.5,0,0,0,3.49,3.62A3.44,3.44,0,0,0,88.85,76Z"/><path class="cls-1" d="M93.58,76v0a5.86,5.86,0,0,1,6-6,6,6,0,0,1,4.54,1.78l-1.61,1.86a4.23,4.23,0,0,0-3-1.3,3.41,3.41,0,0,0-3.34,3.59v0a3.42,3.42,0,0,0,3.34,3.62,4.12,4.12,0,0,0,3-1.35l1.62,1.63a5.91,5.91,0,0,1-4.73,2.06A5.82,5.82,0,0,1,93.58,76Z"/><path class="cls-1" d="M106.57,70.17h2.54v5l4.67-5h3.06l-4.69,4.89,4.91,6.63h-3l-3.57-4.9-1.33,1.38v3.52h-2.54Z"/><path class="cls-1" d="M117.51,76v0a5.86,5.86,0,0,1,6-6,6,6,0,0,1,4.55,1.78l-1.62,1.86a4.23,4.23,0,0,0-2.94-1.3,3.41,3.41,0,0,0-3.34,3.59v0a3.41,3.41,0,0,0,3.34,3.62,4.16,4.16,0,0,0,3-1.35l1.61,1.63a5.89,5.89,0,0,1-4.73,2.06A5.81,5.81,0,0,1,117.51,76Z"/><path class="cls-1" d="M130.5,70.17H133v4.56h4.67V70.17h2.54V81.69H137.7V77.07H133v4.62H130.5Z"/><path class="cls-1" d="M147.29,70.09h2.34l4.93,11.6h-2.65l-1-2.58H146l-1.05,2.58h-2.59ZM150,76.87l-1.53-3.74-1.53,3.74Z"/><path class="cls-1" d="M156.79,70.17h2.53V81.69h-2.53Z"/><path class="cls-1" d="M162.54,70.17h2.33l5.4,7.09V70.17h2.5V81.69h-2.15L165,74.37v7.32h-2.5Z"/><path class="cls-1" d="M0,0V63.93H172.77V0ZM133.94,29.12H85.57a26.31,26.31,0,0,1,25-23.4ZM118.56,5.69h44.5L140.81,27.94Zm-33,29.12H134l-23.41,23.4A26.31,26.31,0,0,1,85.57,34.81ZM140.81,36l22.25,22.26h-44.5Zm4-4L167.09,9.71V54.22ZM93.52,5.69A32,32,0,0,0,79.86,29.12h-.15L66.19,5.69ZM73.15,29.12H49.37L61.26,8.53ZM56.33,5.69,42.81,29.12h-.16A32,32,0,0,0,29,5.69ZM5.69,58.24V5.69h5.13a26.28,26.28,0,0,1,0,52.55Zm23.3,0a32.37,32.37,0,0,0,9.83-10.88h0l7.25-12.56H76.43l7.25,12.56h0a32.37,32.37,0,0,0,9.83,10.88Z"/></g></g></svg>