<svg xmlns="http://www.w3.org/2000/svg" viewBox="0 0 53.83 53.83"><defs><style>.cls-1{fill:#fff;}</style></defs><title>资源 32</title><g id="图层_2" data-name="图层 2"><g id="图层_1-2" data-name="图层 1"><path class="cls-1" d="M32,35.46a9.05,9.05,0,0,1-5.13,1.33A9,9,0,0,1,22,35.48c-.23-.15-.59-.08-.89-.12a3.71,3.71,0,0,0,.38.91,1.79,1.79,0,0,0,.75.48,13.31,13.31,0,0,0,4.65,1,8.51,8.51,0,0,0,5.6-1.55c.2-.15.22-.54.33-.82C32.55,35.39,32.18,35.31,32,35.46Z"/><path class="cls-1" d="M23.55,29.62a2.58,2.58,0,0,0-2.48-2.51,2.67,2.67,0,0,0-2.53,2.5,2.71,2.71,0,0,0,2.51,2.66A2.68,2.68,0,0,0,23.55,29.62Z"/><path class="cls-1" d="M33,27.09a2.62,2.62,0,0,0-2.54,2.48A2.51,2.51,0,1,0,33,27.09Z"/><path class="cls-1" d="M26.91,0A26.92,26.92,0,1,0,53.83,26.91,26.91,26.91,0,0,0,26.91,0ZM42,29a1.41,1.41,0,0,0-.43.95c.37,4.81-2.33,7.66-6.23,9.72a18.55,18.55,0,0,1-8.95,1.87,15.79,15.79,0,0,1-11.49-4.77,8.35,8.35,0,0,1-2.35-6.35,2.26,2.26,0,0,0-.61-1.51,3.88,3.88,0,0,1-.5-5,3.7,3.7,0,0,1,4.82-1,1.56,1.56,0,0,0,1.83,0,16.83,16.83,0,0,1,7.24-2.2,1.09,1.09,0,0,0,1.14-1c.47-2.23.93-4.47,1.45-6.69.59-2.49.38-2.52,2.88-2,1.42.33,2.83.7,4.27.92a2,2,0,0,0,1.28-.55,2.92,2.92,0,0,1,3.06-.47A2.48,2.48,0,0,1,41,13.25a2.77,2.77,0,0,1-5.25,1.49,2.21,2.21,0,0,0-1.87-1.47c-1.14-.2-2.27-.46-3.4-.72-.64-.14-1,0-1.1.72-.43,2.09-.9,4.17-1.39,6.24-.17.74.07,1,.79,1.1a19.1,19.1,0,0,1,7.56,2.33,1.6,1.6,0,0,0,1.23-.06c2.07-.94,4-.57,5.09,1.08A3.94,3.94,0,0,1,42,29Z"/></g></g></svg>