<?xml version="1.0" encoding="utf-8"?>
<!-- Generator: Adobe Illustrator 19.0.0, SVG Export Plug-In . SVG Version: 6.00 Build 0)  -->
<svg version="1.1" id="图层_1" xmlns="http://www.w3.org/2000/svg" xmlns:xlink="http://www.w3.org/1999/xlink" x="0px" y="0px"
	 viewBox="0 0 53.8 53.8" style="enable-background:new 0 0 53.8 53.8;" xml:space="preserve">
<style type="text/css">
	.st0{fill:#FFFFFF;}
	.st1{fill:#7852F1;}
	.st2{font-family:'PingFangSC-Medium-GBpc-EUC-H';}
	.st3{font-size:10px;}
	.st4{letter-spacing:1;}
</style>
<g id="XMLID_250_">
	<g id="XMLID_917_">
		<circle id="XMLID_918_" class="st0" cx="-77.6" cy="26.9" r="26.9"/>
	</g>
	<text id="XMLID_906_" transform="matrix(1 0 0 1 -85.4353 46.6196)" class="st1 st2 st3 st4">EN</text>
	<g id="Telegram_3_">
		<g id="Shape_Plane_3_3_">
			<g id="XMLID_796_">
				<path id="XMLID_905_" class="st1" d="M-69.8,15.4c-0.2-0.1-0.6,0.2-0.6,0.2l-15,9.7c0,0,2.2,7.2,2.3,7.6
					c0.1,0.6,0.6,0.8,0.6,0.8L-82,27l12.2-11.1C-69.7,15.9-69.6,15.5-69.8,15.4z"/>
			</g>
		</g>
		<g id="Shape_Plane_2_3_">
			<g id="XMLID_793_">
				<path id="XMLID_795_" class="st1" d="M-82,26.9c0,0-0.6,6.3-0.6,6.6c0,0.3,0.4,0.4,0.8,0.1c1.3-1.1,3.8-3.7,3.8-3.7L-82,26.9z"
					/>
			</g>
		</g>
		<g id="Shape_Plane_1_3_">
			<g id="XMLID_263_">
				<path id="XMLID_264_" class="st1" d="M-67,11c-0.7,0.2-7.5,2.7-13.7,5.2c-5.5,2.2-10,4.2-10.4,4.4c-1.4,0.5-2.8,1.4-0.5,2.5
					c1.1,0.5,6.2,2.2,6.2,2.2s14.5-9.4,15-9.7c0.7-0.5,1.1,0,0.5,0.6c-0.3,0.3-12,10.7-12,10.7c0.2,0,9.2,6.9,9.7,7.4
					c1.6,1.3,2.8,0.6,3.1-0.8c0.1-0.3,1.5-6.4,2.6-12.1c0.8-4.1,1.5-8.1,1.6-9C-64.7,10.9-65.2,10.5-67,11z"/>
			</g>
		</g>
	</g>
</g>
<g id="XMLID_464_">
	<g id="XMLID_940_">
		<circle id="XMLID_941_" class="st0" cx="26.9" cy="26.9" r="26.9"/>
	</g>
	<text id="XMLID_920_" transform="matrix(1 0 0 1 19.0647 46.6006)" class="st1 st2 st3 st4">CN</text>
	<g id="Telegram_1_">
		<g id="Shape_Plane_3_1_">
			<g id="XMLID_471_">
				<path id="XMLID_472_" class="st1" d="M34.7,15.4c-0.2-0.1-0.6,0.2-0.6,0.2l-15,9.7c0,0,2.2,7.2,2.3,7.6c0.1,0.6,0.6,0.8,0.6,0.8
					l0.5-6.7l12.2-11.1C34.8,15.9,34.9,15.5,34.7,15.4z"/>
			</g>
		</g>
		<g id="Shape_Plane_2_1_">
			<g id="XMLID_469_">
				<path id="XMLID_470_" class="st1" d="M22.5,26.9c0,0-0.6,6.3-0.6,6.6c0,0.3,0.4,0.4,0.8,0.1c1.3-1.1,3.8-3.7,3.8-3.7L22.5,26.9z
					"/>
			</g>
		</g>
		<g id="Shape_Plane_1_1_">
			<g id="XMLID_467_">
				<path id="XMLID_468_" class="st1" d="M37.5,11c-0.7,0.2-7.5,2.7-13.7,5.2c-5.5,2.2-10,4.2-10.4,4.4C12,21,10.6,22,12.8,23
					c1.1,0.5,6.2,2.2,6.2,2.2s14.5-9.4,15-9.7c0.7-0.5,1.1,0,0.5,0.6c-0.3,0.3-12,10.7-12,10.7c0.2,0,9.2,6.9,9.7,7.4
					c1.6,1.3,2.8,0.6,3.1-0.8c0.1-0.3,1.5-6.4,2.6-12.1c0.8-4.1,1.5-8.1,1.6-9C39.8,10.8,39.3,10.5,37.5,11z"/>
			</g>
		</g>
	</g>
</g>
</svg>
