<svg xmlns="http://www.w3.org/2000/svg" viewBox="0 0 53.83 53.83"><defs><style>.cls-1{fill:#fff;}.cls-2{fill:#7852f2;}</style></defs><title>资源 37</title><g id="图层_2" data-name="图层 2"><g id="图层_1-2" data-name="图层 1"><circle id="_椭圆_" data-name="&lt;椭圆&gt;" class="cls-1" cx="26.91" cy="26.91" r="26.91" transform="translate(-11.15 26.91) rotate(-45)"/><g id="_编组_" data-name="&lt;编组&gt;"><path id="_路径_" data-name="&lt;路径&gt;" class="cls-2" d="M43.52,17.21c.44-.54.26-.8-.4-.56l-1.64.43c-.69.14-.82-.13-.29-.59l1.57-2c.34-.61.1-.87-.53-.57l-2.16.81a3,3,0,0,1-2.27-.4,8.62,8.62,0,0,0-4.16-1.54,7.14,7.14,0,0,0-7.18,7.1v.56c.09.59-.39,1-1.09.89a27.48,27.48,0,0,1-5.22-1.27,20.67,20.67,0,0,1-4.36-2.44,25.07,25.07,0,0,1-3-2.71.76.76,0,0,0-1.37.23A6.72,6.72,0,0,0,11,17.58a7.13,7.13,0,0,0,1.26,4.1,5.86,5.86,0,0,0,.89,1.05c.54.44.48.73-.15.62s-2.09-.7-2.09-.66v0a7,7,0,0,0,.64,3A7.11,7.11,0,0,0,14,28.65a5.34,5.34,0,0,0,1.36.71c.67.22.66.5,0,.63H14.23c-.48-.08-.66.4-.4,1.05a4.44,4.44,0,0,0,.49.78,7.2,7.2,0,0,0,3.6,2.67,4.5,4.5,0,0,0,.8.23c.7.07.79.45.21.84a15.13,15.13,0,0,1-2.51,1.31,13.8,13.8,0,0,1-2.57.74,14.62,14.62,0,0,1-2.74.25h-.58c-.62-.06-.62.17,0,.5A26.76,26.76,0,0,0,16,40.51a20.34,20.34,0,0,0,4.38.51,19.77,19.77,0,0,0,13.15-4.61,21,21,0,0,0,7.28-15.59v-.31a2.6,2.6,0,0,1,1-1.45Z"/></g></g></g></svg>