<svg xmlns="http://www.w3.org/2000/svg" viewBox="0 0 53.83 53.83"><defs><style>.cls-1{fill:#fff;}.cls-2{fill:#7852f2;fill-rule:evenodd;}</style></defs><title>资源 35</title><g id="图层_2" data-name="图层 2"><g id="图层_1-2" data-name="图层 1"><circle id="_椭圆_" data-name="&lt;椭圆&gt;" class="cls-1" cx="26.91" cy="26.91" r="26.91" transform="translate(-5.46 46.93) rotate(-76.72)"/><g id="_编组_" data-name="&lt;编组&gt;"><path id="_复合路径_" data-name="&lt;复合路径&gt;" class="cls-2" d="M47.81,31.48c0-5.61-5.62-10.19-11.93-10.19-6.68,0-12,4.58-12,10.19s5.27,10.19,12,10.19a17.65,17.65,0,0,0,4.21-.7L44,43.08l-1.06-3.51C45.71,37.45,47.81,34.65,47.81,31.48ZM32,29.72a1.51,1.51,0,0,1-1.41-1.4A1.52,1.52,0,0,1,32,26.91a1.6,1.6,0,0,1,1.75,1.41A1.59,1.59,0,0,1,32,29.72Zm7.72,0a1.5,1.5,0,0,1-1.39-1.4,1.51,1.51,0,0,1,1.39-1.41,1.62,1.62,0,0,1,1.76,1.41A1.6,1.6,0,0,1,39.73,29.72Z"/><path id="_复合路径_2" data-name="&lt;复合路径&gt;" class="cls-2" d="M22.17,10.75c-7.72,0-14.05,5.26-14.05,12,0,3.86,2.11,7,5.63,9.48L12.34,36.4l4.91-2.46a23.94,23.94,0,0,0,4.92.71c.44,0,.88,0,1.31-.06a10.61,10.61,0,0,1-.43-2.94c0-6.14,5.27-11.12,11.94-11.12.46,0,.91,0,1.35.08C35.13,15,29.08,10.75,22.17,10.75Zm-4.56,9.49a2,2,0,0,1-2.12-1.76,2,2,0,0,1,2.12-1.76,1.66,1.66,0,0,1,1.75,1.76A1.66,1.66,0,0,1,17.61,20.24Zm9.83,0a2,2,0,0,1-2.11-1.76,2,2,0,0,1,2.11-1.76,1.66,1.66,0,0,1,1.76,1.76A1.66,1.66,0,0,1,27.44,20.24Z"/></g></g></g></svg>