<svg xmlns="http://www.w3.org/2000/svg" viewBox="0 0 53.83 53.83"><defs><style>.cls-1{fill:#fff;}.cls-2{fill:#7852f2;}</style></defs><title>资源 43</title><g id="图层_2" data-name="图层 2"><g id="图层_1-2" data-name="图层 1"><circle id="_椭圆_" data-name="&lt;椭圆&gt;" class="cls-1" cx="26.91" cy="26.91" r="26.91"/><path class="cls-2" d="M23.8,42a23.11,23.11,0,0,1-9.73-2.09,10.17,10.17,0,0,1-4.88-4.39,8.08,8.08,0,0,1,.19-7.75,25.66,25.66,0,0,1,6.28-7.66,17.28,17.28,0,0,1,5.05-3.32,10.36,10.36,0,0,1,3.14-.66,3,3,0,0,1,2.87,4.33,1.8,1.8,0,0,0-.2.51c0,.22,0,.55.07.64a.88.88,0,0,0,.68,0c.69-.24,1.35-.57,2-.78a11.23,11.23,0,0,1,4.19-.46,3,3,0,0,1,2.76,3.77,3.36,3.36,0,0,1-.55,1c-.48.68-.35,1.06.47,1.2a6.59,6.59,0,0,1,3.08,1.19,4,4,0,0,1,1.41,4.3,10.65,10.65,0,0,1-4.83,6.8,19.59,19.59,0,0,1-8.42,3C26.22,41.8,25,41.85,23.8,42Zm1.83-17.6a18.3,18.3,0,0,0-5.22.65,12.39,12.39,0,0,0-6.34,3.84,5.24,5.24,0,0,0,1,8.13,10.18,10.18,0,0,0,3.62,1.61,16.38,16.38,0,0,0,9.74-.67,11.3,11.3,0,0,0,5.18-3.65,5.22,5.22,0,0,0-1.11-7.74A12.08,12.08,0,0,0,25.63,24.35Z"/><path class="cls-2" d="M35.24,14.76c-.48,0-1,0-1.44-.1a1,1,0,0,1-.91-.73,1.33,1.33,0,0,1,.3-1.34,2.61,2.61,0,0,1,1.91-.7,10.17,10.17,0,0,1,5.47,1.39,8.65,8.65,0,0,1,4.55,5.22,11.41,11.41,0,0,1,.07,5.86,1.32,1.32,0,0,1-1.28,1.11,1.11,1.11,0,0,1-1.13-.81,3.53,3.53,0,0,1-.06-1.37c.54-2.55-.63-6.17-3-7.58A8,8,0,0,0,35.24,14.76Z"/><path class="cls-2" d="M36.31,17a4.32,4.32,0,0,1,3.41,2,4.11,4.11,0,0,1,.72,3.75A1.36,1.36,0,0,1,39,23.85c-.49,0-.76-.19-.79-.68a8.09,8.09,0,0,1,0-1.1,2.41,2.41,0,0,0-2.51-2.79,4.25,4.25,0,0,1-.79-.09,1,1,0,0,1-.82-.94.93.93,0,0,1,.7-1C35.29,17.1,35.8,17,36.31,17Z"/><path class="cls-2" d="M22.93,27.55a6.14,6.14,0,0,1,4,1.22,4.51,4.51,0,0,1,1.13,6,6.72,6.72,0,0,1-9.12,2.06,4.57,4.57,0,0,1-1.13-6.68A6.59,6.59,0,0,1,22.93,27.55Zm-2.31,7.84a2.53,2.53,0,0,0,1.84-.73,1.69,1.69,0,0,0-.69-2.93,2.32,2.32,0,0,0-2.34.6,1.73,1.73,0,0,0-.52,2A1.81,1.81,0,0,0,20.62,35.39Zm3.31-3a1,1,0,0,0,1-.86.73.73,0,0,0-.77-.73,1,1,0,0,0-1,.88A.77.77,0,0,0,23.93,32.38Z"/></g></g></svg>